<?xml version="1.0" encoding="utf-8"?><svg xmlns="http://www.w3.org/2000/svg" xmlns:xlink="http://www.w3.org/1999/xlink"><symbol class="asvg-inline--fa afa-arrow-right afa-w-14" viewBox="0 0 448 512" id="arrow" xmlns="http://www.w3.org/2000/svg"><path d="M190.5 66.9l22.2-22.2c9.4-9.4 24.6-9.4 33.9 0L441 239c9.4 9.4 9.4 24.6 0 33.9L246.6 467.3c-9.4 9.4-24.6 9.4-33.9 0l-22.2-22.2c-9.5-9.5-9.3-25 .4-34.3L311.4 296H24c-13.3 0-24-10.7-24-24v-32c0-13.3 10.7-24 24-24h287.4L190.9 101.2c-9.8-9.3-10-24.8-.4-34.3z"/></symbol><symbol class="bsvg-inline--fa bfa-user-tie bfa-w-14" viewBox="0 0 448 512" id="auth" xmlns="http://www.w3.org/2000/svg"><path d="M224 256c70.7 0 128-57.3 128-128S294.7 0 224 0 96 57.3 96 128s57.3 128 128 128zm95.8 32.6L272 480l-32-136 32-56h-96l32 56-32 136-47.8-191.4C56.9 292 0 350.3 0 422.4V464c0 26.5 21.5 48 48 48h352c26.5 0 48-21.5 48-48v-41.6c0-72.1-56.9-130.4-128.2-133.8z"/></symbol><symbol class="csvg-inline--fa cfa-shopping-cart cfa-w-18" viewBox="0 0 576 512" id="cart" xmlns="http://www.w3.org/2000/svg"><path d="M528.12 301.319l47.273-208C578.806 78.301 567.391 64 551.99 64H159.208l-9.166-44.81C147.758 8.021 137.93 0 126.529 0H24C10.745 0 0 10.745 0 24v16c0 13.255 10.745 24 24 24h69.883l70.248 343.435C147.325 417.1 136 435.222 136 456c0 30.928 25.072 56 56 56s56-25.072 56-56c0-15.674-6.447-29.835-16.824-40h209.647C430.447 426.165 424 440.326 424 456c0 30.928 25.072 56 56 56s56-25.072 56-56c0-22.172-12.888-41.332-31.579-50.405l5.517-24.276c3.413-15.018-8.002-29.319-23.403-29.319H218.117l-6.545-32h293.145c11.206 0 20.92-7.754 23.403-18.681z"/></symbol><symbol class="dsvg-inline--fa dfa-times dfa-w-11" viewBox="0 0 352 512" id="close" xmlns="http://www.w3.org/2000/svg"><path d="M242.72 256l100.07-100.07c12.28-12.28 12.28-32.19 0-44.48l-22.24-22.24c-12.28-12.28-32.19-12.28-44.48 0L176 189.28 75.93 89.21c-12.28-12.28-32.19-12.28-44.48 0L9.21 111.45c-12.28 12.28-12.28 32.19 0 44.48L109.28 256 9.21 356.07c-12.28 12.28-12.28 32.19 0 44.48l22.24 22.24c12.28 12.28 32.2 12.28 44.48 0L176 322.72l100.07 100.07c12.28 12.28 32.2 12.28 44.48 0l22.24-22.24c12.28-12.28 12.28-32.19 0-44.48L242.72 256z"/></symbol><symbol viewBox="0 0 512 512" id="edit" xmlns="http://www.w3.org/2000/svg"><path d="M352.459 220c0-11.046-8.954-20-20-20h-206c-11.046 0-20 8.954-20 20s8.954 20 20 20h206c11.046 0 20-8.954 20-20zm-226 60c-11.046 0-20 8.954-20 20s8.954 20 20 20H251.57c11.046 0 20-8.954 20-20s-8.954-20-20-20H126.459z"/><path d="M173.459 472H106.57c-22.056 0-40-17.944-40-40V80c0-22.056 17.944-40 40-40h245.889c22.056 0 40 17.944 40 40v123c0 11.046 8.954 20 20 20s20-8.954 20-20V80c0-44.112-35.888-80-80-80H106.57c-44.112 0-80 35.888-80 80v352c0 44.112 35.888 80 80 80h66.889c11.046 0 20-8.954 20-20s-8.954-20-20-20z"/><path d="M467.884 289.572c-23.394-23.394-61.458-23.395-84.837-.016l-109.803 109.56a20.005 20.005 0 0 0-5.01 8.345l-23.913 78.725a20 20 0 0 0 24.476 25.087l80.725-22.361a19.993 19.993 0 0 0 8.79-5.119l109.573-109.367c23.394-23.394 23.394-61.458-.001-84.854zM333.776 451.768l-40.612 11.25 11.885-39.129 74.089-73.925 28.29 28.29-73.652 73.514zM439.615 346.13l-3.875 3.867-28.285-28.285 3.862-3.854c7.798-7.798 20.486-7.798 28.284 0 7.798 7.798 7.798 20.486.014 28.272zM332.459 120h-206c-11.046 0-20 8.954-20 20s8.954 20 20 20h206c11.046 0 20-8.954 20-20s-8.954-20-20-20z"/></symbol><symbol viewBox="0 0 512 512" id="logout" xmlns="http://www.w3.org/2000/svg"><path d="M510.371 226.513c-1.088-2.603-2.645-4.971-4.629-6.955l-63.979-63.979c-8.341-8.32-21.824-8.32-30.165 0-8.341 8.341-8.341 21.845 0 30.165l27.584 27.584H320.013c-11.797 0-21.333 9.557-21.333 21.333s9.536 21.333 21.333 21.333h119.168l-27.584 27.584c-8.341 8.341-8.341 21.845 0 30.165 4.16 4.181 9.621 6.251 15.083 6.251s10.923-2.069 15.083-6.251l63.979-63.979c1.984-1.963 3.541-4.331 4.629-6.955a21.356 21.356 0 0 0 0-16.296z"/><path d="M362.68 298.667c-11.797 0-21.333 9.557-21.333 21.333v106.667h-85.333V85.333c0-9.408-6.187-17.728-15.211-20.437l-74.091-22.229h174.635v106.667c0 11.776 9.536 21.333 21.333 21.333s21.333-9.557 21.333-21.333v-128C384.013 9.557 374.477 0 362.68 0H21.347c-.768 0-1.451.32-2.197.405-1.003.107-1.92.277-2.88.512a21.476 21.476 0 0 0-6.165 2.645c-.469.299-1.045.32-1.493.661-.172.129-.236.364-.407.492-2.325 1.834-4.266 4.074-5.674 6.741-.299.576-.363 1.195-.597 1.792-.683 1.621-1.429 3.2-1.685 4.992-.107.64.085 1.237.064 1.856-.021.427-.299.811-.299 1.237V448c0 10.176 7.189 18.923 17.152 20.907l213.333 42.667c1.387.299 2.795.427 4.181.427a21.31 21.31 0 0 0 13.525-4.843 21.354 21.354 0 0 0 7.808-16.491v-21.333H362.68c11.797 0 21.333-9.557 21.333-21.333V320c0-11.776-9.536-21.333-21.333-21.333z"/></symbol><symbol viewBox="0 0 512 512" id="noentry" xmlns="http://www.w3.org/2000/svg"><path d="M256 0C114.617 0 .002 114.616 0 256.001 0 397.386 114.617 512 256 512c141.385 0 256-114.614 256-255.999S397.385 0 256 0zm0 445.201c-104.491 0-189.201-84.709-189.201-189.2C66.8 151.507 151.509 66.799 256 66.799c104.492 0 189.201 84.708 189.201 189.202 0 104.491-84.709 189.2-189.201 189.2z"/><path d="M21.837 256.001C21.84 118.276 130.602 5.97 266.918.247 120.722-5.887.002 110.869 0 256.001c0 145.067 120.651 261.884 266.918 255.752C130.602 506.03 21.837 393.726 21.837 256.001z"/><path d="M374.675 234.964c0-6.829-5.536-12.363-12.363-12.363H149.688c-6.827 0-12.363 5.534-12.363 12.363v42.072c0 6.828 5.536 12.363 12.363 12.363h212.623c6.827 0 12.363-5.535 12.363-12.363l.001-42.072z"/><path d="M362.311 268.794H149.688c-6.827 0-12.363-5.534-12.363-12.362v20.604c0 6.828 5.536 12.363 12.363 12.363h212.623c6.827 0 12.363-5.535 12.363-12.363v-20.604c.001 6.828-5.535 12.362-12.363 12.362z"/></symbol><symbol class="hsvg-inline--fa hfa-print hfa-w-16" viewBox="0 0 512 512" id="print" xmlns="http://www.w3.org/2000/svg"><path d="M448 192V77.25c0-8.49-3.37-16.62-9.37-22.63L393.37 9.37c-6-6-14.14-9.37-22.63-9.37H96C78.33 0 64 14.33 64 32v160c-35.35 0-64 28.65-64 64v112c0 8.84 7.16 16 16 16h48v96c0 17.67 14.33 32 32 32h320c17.67 0 32-14.33 32-32v-96h48c8.84 0 16-7.16 16-16V256c0-35.35-28.65-64-64-64zm-64 256H128v-96h256v96zm0-224H128V64h192v48c0 8.84 7.16 16 16 16h48v96zm48 72c-13.25 0-24-10.75-24-24 0-13.26 10.75-24 24-24s24 10.74 24 24c0 13.25-10.75 24-24 24z"/></symbol><symbol viewBox="0 0 512 512" id="printqr" xmlns="http://www.w3.org/2000/svg"><path d="M512 315v57c0 11.047-8.953 20-20 20h-56c-11.047 0-20-8.953-20-20s8.953-20 20-20h36v-37c0-11.047 8.953-20 20-20s20 8.953 20 20zm-276-98c11.047 0 20-8.953 20-20v-45h20c11.047 0 20-8.953 20-20V20C296 8.71 286.648-.39 275.27.012 264.434.398 256 9.632 256 20.48V36h-20c-11.047 0-20 8.953-20 20s8.953 20 20 20h20v36h-20c-11.047 0-20 8.953-20 20v65c0 11.047 8.953 20 20 20zM20 295c11.047 0 20-8.953 20-20v-20h21c11.047 0 20-8.953 20-20s-8.953-20-20-20H20c-11.047 0-20 8.953-20 20v40c0 11.047 8.953 20 20 20zm296-40h54v59.52c0 10.847 8.434 20.082 19.27 20.468C400.648 335.391 410 326.29 410 315v-20h21c11.047 0 20-8.953 20-20s-8.953-20-20-20h-21v-20c0-11.047-8.953-20-20-20h-74c-11.047 0-20 8.953-20 20s8.953 20 20 20zm176-40c-11.047 0-20 8.953-20 20s8.953 20 20 20 20-8.953 20-20-8.953-20-20-20zm-176 80c-11.047 0-20 8.953-20 20v37h-10c-11.047 0-20 8.953-20 20s8.953 20 20 20h30c11.047 0 20-8.953 20-20v-57c0-11.047-8.953-20-20-20zm0 177h-20v-20c0-11.047-8.953-20-20-20h-20v-20c0-11.047-8.953-20-20-20s-20 8.953-20 20v40c0 11.047 8.953 20 20 20h20v20c0 11.047 8.953 20 20 20h40c11.047 0 20-8.953 20-20s-8.953-20-20-20zm80-40c0-11.047-8.953-20-20-20h-10c-11.047 0-20 8.953-20 20s8.953 20 20 20h10c11.047 0 20-8.953 20-20zm96 40h-16v-20c0-11.047-8.953-20-20-20s-20 8.953-20 20v20h-40c-11.047 0-20 8.953-20 20s8.953 20 20 20h96c11.047 0 20-8.953 20-20s-8.953-20-20-20zM236 332c11.047 0 20-8.953 20-20v-37c0-11.047-8.953-20-20-20h-72v-19.52c0-10.847-8.434-20.082-19.27-20.468C133.352 214.609 124 223.71 124 235v20h-10c-11.047 0-20 8.953-20 20s8.953 20 20 20h102v17c0 11.047 8.953 20 20 20zM0 120V60C0 26.914 26.914 0 60 0h60c33.086 0 60 26.914 60 60v60c0 33.086-26.914 60-60 60H60c-33.086 0-60-26.914-60-60zm40 0c0 11.027 8.973 20 20 20h60c11.027 0 20-8.973 20-20V60c0-11.027-8.973-20-20-20H60c-11.027 0-20 8.973-20 20zm50-10c11.047 0 20-8.953 20-20s-8.953-20-20-20-20 8.953-20 20 8.953 20 20 20zm422-50v60c0 33.086-26.914 60-60 60h-60c-33.086 0-60-26.914-60-60V60c0-33.086 26.914-60 60-60h60c33.086 0 60 26.914 60 60zm-40 0c0-11.027-8.973-20-20-20h-60c-11.027 0-20 8.973-20 20v60c0 11.027 8.973 20 20 20h60c11.027 0 20-8.973 20-20zm-50 10c-11.047 0-20 8.953-20 20s8.953 20 20 20 20-8.953 20-20-8.953-20-20-20zM180 392v60c0 33.086-26.914 60-60 60H60c-33.086 0-60-26.914-60-60v-60c0-33.086 26.914-60 60-60h60c33.086 0 60 26.914 60 60zm-40 0c0-11.027-8.973-20-20-20H60c-11.027 0-20 8.973-20 20v60c0 11.027 8.973 20 20 20h60c11.027 0 20-8.973 20-20zm-50 10c-11.047 0-20 8.953-20 20s8.953 20 20 20 20-8.953 20-20-8.953-20-20-20zm0 0"/></symbol><symbol viewBox="0 0 512 512" id="product" xmlns="http://www.w3.org/2000/svg"><path d="M61 271h150v30H61zm0-60h150v30H61zm0-60h150v30H61zm0 180h150v30H61zm75 120H61v46c0 8.29 6.71 15 15 15h120c8.29 0 15-6.71 15-15V391H61v30h75c8.29 0 15 6.71 15 15s-6.71 15-15 15zM15 121h241c8.402 0 15-6.598 15-15 0-1.2 0-2.102-.3-3C269.5 46.602 223 0 166 0c-8.402 0-15 6.598-15 15v15h-30V15c0-8.402-6.598-15-15-15C49 0 1.5 46.602.3 103c-.3.898-.3 1.8-.3 3 0 8.402 6.598 15 15 15zm226 204.285v101.442a14.99 14.99 0 0 0 4.395 10.605l69.289 70.273A14.987 14.987 0 0 0 325.285 512h101.442a14.99 14.99 0 0 0 10.605-4.395l70.273-70.289A14.99 14.99 0 0 0 512 426.711V325.273a14.99 14.99 0 0 0-4.395-10.605l-70.289-69.273A14.99 14.99 0 0 0 426.711 241H325.273a14.99 14.99 0 0 0-10.605 4.395l-69.273 69.289A14.98 14.98 0 0 0 241 325.285zM376 301c41.352 0 75 33.648 75 75s-33.648 75-75 75-75-33.648-75-75 33.648-75 75-75zm0 0"/><path d="M376 421c24.813 0 45-20.188 45-45s-20.188-45-45-45-45 20.188-45 45 20.188 45 45 45zm0 0"/></symbol><symbol viewBox="0 0 45.479 45.479" id="qrcode" xmlns="http://www.w3.org/2000/svg"><path d="M9.563.362H2.384A2.374 2.374 0 0 0 0 2.742v7.181a2.394 2.394 0 0 0 2.384 2.403h7.18a2.407 2.407 0 0 0 2.399-2.403V2.742a2.388 2.388 0 0 0-2.4-2.38zm.24 9.521a.284.284 0 0 1-.285.284H2.352a.284.284 0 0 1-.284-.284V2.715c0-.157.127-.284.284-.284h7.167c.158 0 .285.127.285.284l-.001 7.168z"/><path d="M3.687 4.05h4.588v4.587H3.687zm5.876 15.022H2.384A2.37 2.37 0 0 0 0 21.447v7.182c0 1.32 1.062 2.408 2.384 2.408h7.18a2.412 2.412 0 0 0 2.399-2.408v-7.182c0-1.321-1.078-2.375-2.4-2.375zm.24 9.552c0 .158-.112.254-.269.254H2.373c-.157 0-.305-.096-.305-.254v-7.163c0-.157.147-.32.305-.32h7.162c.156 0 .269.164.269.32l-.001 7.163z"/><path d="M3.687 22.76h4.588v4.588H3.687zm17.304-10.434h7.181a2.418 2.418 0 0 0 2.411-2.403V2.742c0-1.321-1.091-2.38-2.411-2.38h-7.181a2.364 2.364 0 0 0-2.372 2.38v7.181c0 1.321 1.05 2.403 2.372 2.403zm-.303-9.611c0-.157.127-.284.284-.284h7.168c.156 0 .283.127.283.284v7.168a.284.284 0 0 1-.283.284h-7.168a.284.284 0 0 1-.284-.284V2.715z"/><path d="M22.218 4.05h4.676v4.587h-4.676zM4.299 13.675H2.716a.651.651 0 0 0-.647.633v1.583c0 .345.302.663.647.663h1.511v.02c0 .345.244.609.589.609h3.549v.075c0 .345.306.645.651.645h1.583a.658.658 0 0 0 .644-.645v-1.534c0-.345-.298-.61-.644-.61h-.795v-.806a.628.628 0 0 0-.621-.633h-.851c-.345 0-.597.288-.597.633v.807H4.946v-.807a.65.65 0 0 0-.647-.633zm10.092-6.567v3.508c0 .345.237.63.583.63h2.267c.345 0 .659-.285.659-.63V9.033c0-.345-.314-.666-.659-.666h-.78V3.51h.096a.613.613 0 0 0 .624-.611v-.85a.609.609 0 0 0-.624-.607h-2.999a.594.594 0 0 0-.606.607v.85c0 .345.26.611.606.611h.833v2.249h-.833c-.346 0-.606.291-.606.636v.118c0 .345.26.595.606.595h.833zm1.71 7.291V12.86a.625.625 0 0 0-.625-.625h-1.539a.625.625 0 0 0-.625.625v1.539c0 .345.28.625.625.625h1.539a.625.625 0 0 0 .625-.625zm2.731.536c-.345 0-.662.298-.662.643v.618a14.44 14.44 0 0 1 1.716-1.261h-1.054zm-.824 1.439h-2.692c-.345 0-.654.274-.654.62v3.605c.72-1.299 1.577-2.514 2.666-3.603.215-.215.452-.442.68-.622zm26.619 23.82l-5.887-5.886c3.094-4.955 2.503-11.611-1.812-15.927-5.019-5.018-13.184-5.019-18.202 0-5.019 5.018-5.009 13.175.009 18.194a12.858 12.858 0 0 0 15.935 1.803l5.887 5.888a2.88 2.88 0 0 0 4.08.01 2.883 2.883 0 0 0-.01-4.082zm-10.15-6.067c-3.666 3.666-9.629 3.666-13.294 0-3.667-3.666-3.667-9.631 0-13.295 3.666-3.665 9.628-3.665 13.294 0 3.664 3.665 3.664 9.629 0 13.295z"/></symbol><symbol class="lsvg-inline--fa lfa-search lfa-w-16" viewBox="0 0 512 512" id="search" xmlns="http://www.w3.org/2000/svg"><path d="M505 442.7L405.3 343c-4.5-4.5-10.6-7-17-7H372c27.6-35.3 44-79.7 44-128C416 93.1 322.9 0 208 0S0 93.1 0 208s93.1 208 208 208c48.3 0 92.7-16.4 128-44v16.3c0 6.4 2.5 12.5 7 17l99.7 99.7c9.4 9.4 24.6 9.4 33.9 0l28.3-28.3c9.4-9.4 9.4-24.6.1-34zM208 336c-70.7 0-128-57.2-128-128 0-70.7 57.2-128 128-128 70.7 0 128 57.2 128 128 0 70.7-57.2 128-128 128z"/></symbol><symbol viewBox="0 0 512.01 512.01" id="service" xmlns="http://www.w3.org/2000/svg"><path d="M477.765 373.495c-5.141-7.527-17.466-19.802-39.834-20.289-17.809 4.379-36.815 11.154-54.572 21.35-22.308 12.805-39.21 29.108-51.014 48.507-.171.547-.282.915-.282.915-1.24 6.458-1.018 12.471.154 17.74 6.398 28.62 41.536 48.242 70.362 48.619a9.95 9.95 0 0 0 9.272-13.874l-17.415-40.629 38.457-19.228 16.945 39.552a9.946 9.946 0 0 0 6.963 5.782 9.942 9.942 0 0 0 8.767-2.241c23.719-20.795 29.381-61.151 12.197-86.204zm-72.106-39.406c-44.932-30.955-86.75-64.066-124.472-98.306l78.111-78.111a4.713 4.713 0 0 0 0-6.663l-19.99-19.99a4.713 4.713 0 0 0-6.663 0l-78.915 78.915c-30.647-29.938-58.079-60.525-81.464-91.147-2.027-2.652-5.885-2.523-7.861.163-4.362 5.936-9.169 11.59-14.481 16.902-10.35 10.35-22.402 19.511-36.105 27.371-8.793 5.055-18.005 9.358-27.354 13.027-3.764 1.48-4.337 6.518-.975 8.785 34.924 23.539 66.812 47.019 95.911 70.567L56.074 380.928 10.86 399.755a9.45 9.45 0 0 0-3.712 4.858l-6.663 19.99a9.418 9.418 0 0 0 2.275 9.64l53.314 53.314a9.422 9.422 0 0 0 9.64 2.275l19.99-6.663a9.407 9.407 0 0 0 4.858-3.712l18.809-45.223 129.031-129.031c31.511 29.655 58.72 59.516 81.764 89.804 1.959 2.575 5.714 2.566 7.775.068 2.942-3.593 6.056-7.074 9.392-10.401 10.358-10.35 22.41-19.519 36.113-27.38 9.965-5.722 20.469-10.512 31.092-14.49 3.798-1.419 4.456-6.414 1.121-8.715zM155.509 77.105c-6.39-28.62-41.536-48.242-70.362-48.619-3.353-.051-6.501 1.617-8.383 4.422a9.976 9.976 0 0 0-.881 9.452l17.415 40.63-38.457 19.228-16.945-39.56a9.985 9.985 0 0 0-6.963-5.782 9.942 9.942 0 0 0-8.767 2.241C-1.552 79.911-7.214 120.266 9.97 145.32c5.671 8.271 18.749 22.701 45.642 20.4 15.952-4.379 32.615-10.735 48.285-19.742 22.804-13.096 39.988-29.826 51.8-49.799-.094-.137-.205-.282-.308-.419.171-.547 1.292-13.386.12-18.655z"/><path d="M509.251 141.026l-19.99-19.99c-.821-.59-1.634-1.172-2.455-1.771l-25.233-12.617c-5.337-5.611-6.543-9.255-8.04-13.814-1.659-5.021-3.729-11.265-10.914-18.45-58.858-58.856-126.448-68.941-185.425-27.653-2.481 1.736-3.935 4.645-3.935 7.664v26.653c0 3.165 1.702 6.047 4.354 7.801 2.634 1.745 6.099 2.002 9.007.761 24.959-10.589 48.619-20.623 78.043-4.414l-4.285 12.856a9.435 9.435 0 0 0 2.275 9.648l37.02 37.02c2.352 2.352 5.765 3.285 8.973 2.412 9.007-2.429 18.963-.393 26.285 6.236l12.591 25.182c.59.821 1.172 1.634 1.771 2.455l19.99 19.99c3.678 3.678 9.648 3.678 13.326 0l46.651-46.651c3.669-3.67 3.669-9.64-.009-13.318z"/></symbol></svg>